<svg xmlns="http://www.w3.org/2000/svg" width="91" height="61"><path d="M0 0 C1.89921336 -0.01654028 3.79836496 -0.04380493 5.69726562 -0.08203125 C8.43392265 -0.13685974 11.16911732 -0.15868481 13.90625 -0.17333984 C14.75225769 -0.19600922 15.59826538 -0.21867859 16.46990967 -0.24203491 C20.80905452 -0.2265227 22.55520012 -0.08519512 26.07519531 2.6796875 C28.109375 5.35009766 28.109375 5.35009766 29.859375 8.60009766 C31.761905 11.50860251 31.761905 11.50860251 34.25390625 11.81103516 C35.8518608 11.91945857 37.45096541 12.0121972 39.05078125 12.08837891 C41.109375 12.35009766 41.109375 12.35009766 43.109375 14.16259766 C44.109375 16.35009766 44.109375 16.35009766 44.41796875 18.34619141 C44.93963856 20.50328569 44.93963856 20.50328569 46.95703125 21.61572266 C47.68792969 21.94056641 48.41882813 22.26541016 49.171875 22.60009766 C49.90535156 22.93525391 50.63882813 23.27041016 51.39453125 23.61572266 C51.96042969 23.85806641 52.52632813 24.10041016 53.109375 24.35009766 C53.22698215 27.51644402 53.29708524 30.68221839 53.359375 33.85009766 C53.39289063 34.73697266 53.42640625 35.62384766 53.4609375 36.53759766 C53.5509833 42.66071203 52.8131279 47.35024256 49.109375 52.35009766 C47.130393 54.34488517 45.02265418 55.88391954 42.671875 57.41259766 C42.11177734 57.81414063 41.55167969 58.21568359 40.97460938 58.62939453 C38.41448005 60.35905017 36.64049767 61.35969626 33.515625 61.30322266 C30.70744246 60.19089061 28.4965498 58.80575551 26.046875 57.03759766 C25.21027344 56.44333984 24.37367187 55.84908203 23.51171875 55.23681641 C21.17539816 53.40194999 19.08800382 51.56634472 17.109375 49.35009766 C17.109375 48.69009766 17.109375 48.03009766 17.109375 47.35009766 C5.559375 47.35009766 -5.990625 47.35009766 -17.890625 47.35009766 C-17.890625 49.33009766 -17.890625 51.31009766 -17.890625 53.35009766 C-18.890625 54.35009766 -18.890625 54.35009766 -21.17578125 54.44775391 C-22.55056641 54.43035156 -22.55056641 54.43035156 -23.953125 54.41259766 C-24.87222656 54.40357422 -25.79132812 54.39455078 -26.73828125 54.38525391 C-27.44855469 54.37365234 -28.15882812 54.36205078 -28.890625 54.35009766 C-30.24502168 51.6413043 -29.95563951 49.34076498 -29.890625 46.35009766 C-30.880625 46.02009766 -31.870625 45.69009766 -32.890625 45.35009766 C-36.82044956 27.20974678 -36.82044956 27.20974678 -33.890625 21.35009766 C-35.210625 21.02009766 -36.530625 20.69009766 -37.890625 20.35009766 C-37.578125 17.47509766 -37.578125 17.47509766 -36.890625 14.35009766 C-33.68682483 12.21423087 -32.87122533 12.11877591 -29.203125 12.22509766 C-27.99076172 12.25216797 -27.99076172 12.25216797 -26.75390625 12.27978516 C-25.83158203 12.31458984 -25.83158203 12.31458984 -24.890625 12.35009766 C-24.66375 11.46322266 -24.436875 10.57634766 -24.203125 9.66259766 C-22.71292695 5.90162162 -20.87491232 4.02830423 -17.890625 1.35009766 C-14.96057929 -1.57994805 -4.16010858 0.02657528 0 0 Z M-19.890625 8.35009766 C-21.540625 11.65009766 -23.190625 14.95009766 -24.890625 18.35009766 C-13.340625 18.35009766 -1.790625 18.35009766 10.109375 18.35009766 C10.769375 17.03009766 11.429375 15.71009766 12.109375 14.35009766 C15.32229558 12.74363737 18.6352402 12.72568337 22.109375 13.35009766 C25.109375 15.85009766 25.109375 15.85009766 27.109375 18.35009766 C28.099375 18.02009766 29.089375 17.69009766 30.109375 17.35009766 C28.47917721 12.60770409 25.78974994 5.69028512 21.109375 3.35009766 C16.02639372 3.06613222 10.94245909 3.03636885 5.85229492 3 C4.15391326 2.98344942 2.45560099 2.95617081 0.75756836 2.91796875 C-1.69453963 2.86310107 -4.14501647 2.84131252 -6.59765625 2.82666016 C-7.73071953 2.7926561 -7.73071953 2.7926561 -8.88667297 2.75796509 C-14.40942567 2.78001263 -16.6242104 3.9473726 -19.890625 8.35009766 Z M14.109375 16.35009766 C14.109375 17.01009766 14.109375 17.67009766 14.109375 18.35009766 C17.079375 18.35009766 20.049375 18.35009766 23.109375 18.35009766 C21.81469823 16.29019288 21.81469823 16.29019288 20.109375 14.35009766 C16.92447493 14.07274756 16.92447493 14.07274756 14.109375 16.35009766 Z M-33.890625 16.35009766 C-33.890625 17.01009766 -33.890625 17.67009766 -33.890625 18.35009766 C-31.910625 18.35009766 -29.930625 18.35009766 -27.890625 18.35009766 C-27.560625 17.36009766 -27.230625 16.37009766 -26.890625 15.35009766 C-30.51947824 15.19860467 -30.51947824 15.19860467 -33.890625 16.35009766 Z M35.109375 15.35009766 C35.769375 16.01009766 36.429375 16.67009766 37.109375 17.35009766 C38.099375 17.02009766 39.089375 16.69009766 40.109375 16.35009766 C38.459375 16.02009766 36.809375 15.69009766 35.109375 15.35009766 Z M25.359375 22.35009766 C24.18890625 22.90697266 23.0184375 23.46384766 21.8125 24.03759766 C20.92046875 24.47072266 20.0284375 24.90384766 19.109375 25.35009766 C18.93345881 28.53688702 18.82800722 31.72241406 18.734375 34.91259766 C18.68410156 35.80785156 18.63382813 36.70310547 18.58203125 37.62548828 C18.47542821 42.47592643 18.71745387 45.52557006 21.91015625 49.31494141 C22.94996227 50.3539797 24.01385562 51.36997806 25.109375 52.35009766 C25.75003906 52.94822266 26.39070313 53.54634766 27.05078125 54.16259766 C30.44953368 56.72916472 30.44953368 56.72916472 34.53515625 57.14697266 C37.29715056 56.29196987 39.33151271 55.20200585 41.734375 53.60009766 C42.86746094 52.86533203 42.86746094 52.86533203 44.0234375 52.11572266 C47.16219328 49.4589481 48.91391519 47.27943505 49.33984375 43.07519531 C49.40470091 40.38919694 49.37089731 37.72327873 49.296875 35.03759766 C49.28333984 34.10625 49.26980469 33.17490234 49.25585938 32.21533203 C49.22064382 29.92632119 49.17139599 27.63851307 49.109375 25.35009766 C47.030563 24.34073229 44.9461388 23.3429192 42.859375 22.35009766 C41.69921875 21.79322266 40.5390625 21.23634766 39.34375 20.66259766 C33.6948597 18.37029435 30.60610075 19.8316693 25.359375 22.35009766 Z M-30.68974304 22.6907196 C-32.58014965 25.30288245 -32.01351938 27.45963684 -31.703125 30.60009766 C-31.60644531 31.69837891 -31.50976562 32.79666016 -31.41015625 33.92822266 C-30.86696572 37.99504845 -30.86696572 37.99504845 -28.890625 44.35009766 C-14.370625 44.35009766 0.149375 44.35009766 15.109375 44.35009766 C15.109375 37.75009766 15.109375 31.15009766 15.109375 24.35009766 C17.089375 23.69009766 19.069375 23.03009766 21.109375 22.35009766 C21.109375 22.02009766 21.109375 21.69009766 21.109375 21.35009766 C14.04360831 21.27414513 6.97794656 21.22153905 -0.08813477 21.18530273 C-2.49279718 21.1701995 -4.89743198 21.14971557 -7.30200195 21.1237793 C-10.75478931 21.08746415 -14.20721304 21.07038665 -17.66015625 21.05712891 C-18.73836136 21.04164505 -19.81656647 21.02616119 -20.92744446 21.01020813 C-22.42866096 21.00986824 -22.42866096 21.00986824 -23.96020508 21.00952148 C-25.28257927 20.99952873 -25.28257927 20.99952873 -26.63166809 20.98933411 C-28.95417135 21.18126167 -28.95417135 21.18126167 -30.68974304 22.6907196 Z M-25.890625 47.35009766 C-25.890625 48.67009766 -25.890625 49.99009766 -25.890625 51.35009766 C-24.240625 51.35009766 -22.590625 51.35009766 -20.890625 51.35009766 C-20.890625 50.03009766 -20.890625 48.71009766 -20.890625 47.35009766 C-22.540625 47.35009766 -24.190625 47.35009766 -25.890625 47.35009766 Z " fill="#F9F9F9" transform="translate(37.890625,-0.35009765625)"></path><path d="M0 0 C4.36045847 2.22136563 7.13277421 4.43567029 9 9 C9.58075783 12.96851185 9.40913488 16.05252975 7.8125 19.75 C3.04770215 25.66492147 3.04770215 25.66492147 -1.1484375 26.3515625 C-5.87503311 26.52429523 -9.29489513 26.17580417 -13 23 C-16.37858037 19.07354173 -17.66876201 16.04353555 -17.38671875 10.95703125 C-16.5275607 6.6091708 -14.06270724 3.88558937 -10.75 1.125 C-7.10164042 -0.36751074 -3.84747819 -0.67896674 0 0 Z M-12 7 C-13.87515219 11.05032874 -14.33181438 12.98503837 -12.9375 17.25 C-10.7799756 20.31229269 -9.49345256 21.65025697 -6 23 C-2.09917987 22.93156456 0.1804164 22.58233572 3.375 20.3125 C5.42817055 17.39068037 5.92851853 15.57407341 6 12 C4.71638128 8.36308029 3.6258903 6.48145408 0.5625 4.125 C-4.79278403 1.77389969 -7.80124289 3.44018419 -12 7 Z " fill="#F9F9F9" transform="translate(76,25)"></path><path d="M0 0 C2.5625 0.3125 2.5625 0.3125 4.4375 1.5 C5.5625 3.3125 5.5625 3.3125 5.375 5.875 C4.5625 8.3125 4.5625 8.3125 2.5625 10.3125 C-0.30762296 10.68046448 -1.84524618 10.68759409 -4.3125 9.125 C-5.4375 7.3125 -5.4375 7.3125 -5.25 4.75 C-4.18108204 1.54324612 -3.41484064 0.43780008 0 0 Z M-0.4375 3.3125 C-0.4375 4.6325 -0.4375 5.9525 -0.4375 7.3125 C0.2225 6.9825 0.8825 6.6525 1.5625 6.3125 C1.2325 5.3225 0.9025 4.3325 0.5625 3.3125 C0.2325 3.3125 -0.0975 3.3125 -0.4375 3.3125 Z " fill="#F9F8F8" transform="translate(14.4375,27.6875)"></path><path d="M0 0 C1.27617188 0.00483398 1.27617188 0.00483398 2.578125 0.00976562 C3.46757813 0.01814453 4.35703125 0.02652344 5.2734375 0.03515625 C6.170625 0.03966797 7.0678125 0.04417969 7.9921875 0.04882812 C10.21100398 0.06063034 12.42968768 0.0770947 14.6484375 0.09765625 C14.9784375 1.08765625 15.3084375 2.07765625 15.6484375 3.09765625 C8.3884375 3.09765625 1.1284375 3.09765625 -6.3515625 3.09765625 C-6.3515625 2.43765625 -6.3515625 1.77765625 -6.3515625 1.09765625 C-4.00303722 -0.07660639 -2.61382185 -0.01742548 0 0 Z " fill="#F3F2F3" transform="translate(36.3515625,37.90234375)"></path><path d="M0 0 C0 3 0 3 -1.390625 4.640625 C-2.00421875 5.17171875 -2.6178125 5.7028125 -3.25 6.25 C-4.15492187 7.06210937 -4.15492187 7.06210937 -5.078125 7.890625 C-7 9 -7 9 -9.125 8.76953125 C-11.29661295 7.8782651 -12.47044755 6.75898532 -14 5 C-13.67 4.01 -13.34 3.02 -13 2 C-10.525 2.99 -10.525 2.99 -8 4 C-7.236875 3.34 -6.47375 2.68 -5.6875 2 C-3 0 -3 0 0 0 Z " fill="#F7F6F6" transform="translate(79,34)"></path><path d="M0 0 C1.32 0.33 2.64 0.66 4 1 C4 2.65 4 4.3 4 6 C2.68 6 1.36 6 0 6 C0 4.02 0 2.04 0 0 Z " fill="#F2F1F1" transform="translate(48,28)"></path><path d="M0 0 C0.99 0.33 1.98 0.66 3 1 C3 2.65 3 4.3 3 6 C2.01 6 1.02 6 0 6 C0 4.02 0 2.04 0 0 Z " fill="#F8F8F8" transform="translate(43,28)"></path><path d="M0 0 C0.99 0.33 1.98 0.66 3 1 C2.67 2.65 2.34 4.3 2 6 C1.34 6 0.68 6 0 6 C0 4.02 0 2.04 0 0 Z " fill="#F6F5F6" transform="translate(26,28)"></path><path d="M0 0 C0.66 0 1.32 0 2 0 C2 1.98 2 3.96 2 6 C1.34 6 0.68 6 0 6 C0 4.02 0 2.04 0 0 Z " fill="#FEFEFE" transform="translate(31,28)"></path><path d="M0 0 C0.66 0 1.32 0 2 0 C2 1.98 2 3.96 2 6 C1.34 6 0.68 6 0 6 C0 4.02 0 2.04 0 0 Z " fill="#FFFFFF" transform="translate(37,28)"></path></svg>