<svg xmlns="http://www.w3.org/2000/svg" width="91" height="82"><path d="M0 0 C0.99 0.33 1.98 0.66 3 1 C3.0825 2.11375 3.165 3.2275 3.25 4.375 C3.59931526 8.00648215 3.59931526 8.00648215 5.875 9.5 C8.16786836 10.23577017 8.16786836 10.23577017 11 9 C11 6.36 11 3.72 11 1 C11.66 0.67 12.32 0.34 13 0 C17.1063895 1.89525669 19.09999099 3.91498064 21 8 C22.38338849 12.89506696 21.88430258 16.28924355 20 21 C17.5 23.9375 17.5 23.9375 15 26 C14.34 26 13.68 26 13 26 C13.01946826 30.18185942 13.07132389 34.36171585 13.15258789 38.54272461 C13.17571503 39.96350702 13.19015126 41.38445958 13.19555664 42.80541992 C13.20488661 44.85442466 13.24595166 46.9007735 13.29296875 48.94921875 C13.3086792 50.17987061 13.32438965 51.41052246 13.34057617 52.6784668 C14.17123311 56.86250517 15.83272093 58.24260058 19 61 C21.83233716 65.24850574 21.65183684 69.01034416 21 74 C19.26460898 77.23939656 17.57678866 79.42321134 15 82 C13.68 82 12.36 82 11 82 C11 79.36 11 76.72 11 74 C7.41672247 72.99782936 7.41672247 72.99782936 4 74 C3.53476937 75.89533342 3.53476937 75.89533342 3.375 78.0625 C3.189375 80.0115625 3.189375 80.0115625 3 82 C-0.71980755 81.78743957 -1.97426295 81.02398225 -4.75 78.4375 C-7.39199284 74.942712 -8.49187663 71.37309064 -8 67 C-7.01 64.69 -6.02 62.38 -5 60 C-19.19 60 -33.38 60 -48 60 C-48 61.98 -48 63.96 -48 66 C-50 68 -50 68 -52.34765625 68.23046875 C-53.69150391 68.20919922 -53.69150391 68.20919922 -55.0625 68.1875 C-55.96097656 68.18105469 -56.85945313 68.17460938 -57.78515625 68.16796875 C-60 68 -60 68 -61 67 C-61.12375 65.88625 -61.2475 64.7725 -61.375 63.625 C-61.5915934 60.08315253 -61.5915934 60.08315253 -63.46484375 58.73046875 C-65.86601303 56.0238072 -65.77819885 53.22428171 -66.1875 49.6875 C-66.34605469 48.39199219 -66.50460938 47.09648438 -66.66796875 45.76171875 C-67.46767538 36.70151307 -67.46767538 36.70151307 -65 33 C-66.32 32.67 -67.64 32.34 -69 32 C-68.74438677 29.6568787 -68.40729228 27.32156597 -68 25 C-65.47524538 23.73762269 -63.68799534 23.90143596 -60.875 23.9375 C-59.96492188 23.94652344 -59.05484375 23.95554687 -58.1171875 23.96484375 C-57.41851562 23.97644531 -56.71984375 23.98804687 -56 24 C-55.62875 22.948125 -55.62875 22.948125 -55.25 21.875 C-53.25632458 17.28954653 -51.19011964 13.79341309 -47 11 C-45.12068176 10.75949097 -45.12068176 10.75949097 -42.98754883 10.77294922 C-41.7866436 10.77317581 -41.7866436 10.77317581 -40.56147766 10.77340698 C-39.70201035 10.78372955 -38.84254303 10.79405212 -37.95703125 10.8046875 C-37.0734343 10.8075174 -36.18983734 10.81034729 -35.27946472 10.81326294 C-32.45700546 10.82445903 -29.63486338 10.84956249 -26.8125 10.875 C-24.89909312 10.88503054 -22.98568127 10.89415626 -21.07226562 10.90234375 C-16.38138818 10.92439649 -11.69074787 10.95892238 -7 11 C-6.8865625 10.23171875 -6.773125 9.4634375 -6.65625 8.671875 C-5.76033165 5.02420744 -3.74499935 3.47049941 -1 1 C-0.67 0.67 -0.34 0.34 0 0 Z M-2 6 C-3.73187602 8.98342705 -4.28621354 10.99697477 -4 14.4375 C-3.95875 15.17871094 -3.9175 15.91992188 -3.875 16.68359375 C-3.11926797 19.33561163 -3.11926797 19.33561163 0.00439453 21.13574219 C2.83580853 23.43462342 2.98288838 23.91630657 3.77294922 27.78051758 C3.81357759 29.23465981 3.82256864 30.68993146 3.8046875 32.14453125 C3.81839386 32.91431808 3.83210022 33.68410492 3.84622192 34.47721863 C3.88345265 36.92291071 3.87981246 39.36656531 3.875 41.8125 C3.89313193 43.4759431 3.9139362 45.13935936 3.9375 46.80273438 C3.98928487 50.86882991 4.0044355 54.93359285 4 59 C3.21238281 59.28488281 2.42476563 59.56976563 1.61328125 59.86328125 C-1.78624273 61.34199796 -2.56711608 62.60632755 -4 66 C-4.59321698 70.81090766 -4.59321698 70.81090766 -2.5 74.9375 C-2.005 75.288125 -1.51 75.63875 -1 76 C-0.7525 75.401875 -0.505 74.80375 -0.25 74.1875 C1.22418254 71.60768056 2.38713283 70.4184136 5 69 C8.40611234 69.25545843 11.03297233 70.3516513 14 72 C14 73.65 14 75.3 14 77 C16.54087813 75.12195964 17.04531534 73.84290681 17.9375 70.75 C18.02052276 65.76863442 16.90911314 64.00985865 14 60 C11.9374829 58.79865997 11.9374829 58.79865997 10 58 C9.85126836 53.39198858 9.742612 48.78538408 9.67041016 44.17553711 C9.64030399 42.60888321 9.5994077 41.04239697 9.54736328 39.47631836 C9.47426113 37.21946857 9.44048699 34.96485204 9.4140625 32.70703125 C9.38309479 32.01100296 9.35212708 31.31497467 9.32022095 30.59785461 C9.31829653 27.79391476 9.44362957 25.64061656 11.32513428 23.47421265 C12.82058988 22.23606726 14.40808156 21.11138973 16 20 C18.19398081 17.23367638 18.05328721 15.25853168 17.6875 11.875 C17.22823242 8.21972457 17.22823242 8.21972457 16 6 C15.34 6 14.68 6 14 6 C14 7.65 14 9.3 14 11 C9.92809781 13.03595109 7.39758611 13.14719638 3 12 C-0.0109362 9.9927092 -0.63016497 9.16115776 -2 6 Z M-50 19 C-51.82875406 21.85511283 -51.82875406 21.85511283 -53.3125 24.8125 C-53.82425781 25.78832031 -54.33601563 26.76414062 -54.86328125 27.76953125 C-55.42595703 28.87361328 -55.42595703 28.87361328 -56 30 C-50.82231153 30.14861989 -45.64587099 30.25734045 -40.46655273 30.32958984 C-38.70591601 30.35971388 -36.94542878 30.40062296 -35.18530273 30.45263672 C-32.65050374 30.52565267 -30.11769201 30.55949741 -27.58203125 30.5859375 C-26.40674614 30.63238907 -26.40674614 30.63238907 -25.2077179 30.67977905 C-20.97105536 30.72212187 -20.97105536 30.72212187 -17.43052673 28.64863586 C-16.21523368 27.15472622 -15.10088316 25.58011376 -14 24 C-10.98746364 23.00704109 -9.25994183 23.53429402 -6 24 C-2.76386646 25.74253345 -2.17604685 26.47185944 -1 30 C-0.34 30 0.32 30 1 30 C1 28.68 1 27.36 1 26 C-1.5514896 23.82222566 -1.5514896 23.82222566 -3.39453125 22.63671875 C-5.8085742 20.17568713 -6.69963126 17.15667743 -8 14 C-13.17772746 13.87614916 -18.35458788 13.78554429 -23.53344727 13.7253418 C-25.29401676 13.70023939 -27.05448247 13.66614972 -28.81469727 13.62280273 C-31.34938179 13.56195885 -33.88268575 13.53374887 -36.41796875 13.51171875 C-37.20149216 13.48591232 -37.98501556 13.4601059 -38.7922821 13.43351746 C-44.24892774 13.43073415 -46.54272953 14.48816677 -50 19 Z M-13 26 C-13.66 27.32 -14.32 28.64 -15 30 C-11.37 30 -7.74 30 -4 30 C-4.99 28.68 -5.98 27.36 -7 26 C-10.12586875 25.66602213 -10.12586875 25.66602213 -13 26 Z M-64 27 C-64.33 27.66 -64.66 28.32 -65 29 C-63.02 29 -61.04 29 -59 29 C-58.67 28.34 -58.34 27.68 -58 27 C-59.98 27 -61.96 27 -64 27 Z M-61.86222839 34.29521179 C-63.81887972 37.22697427 -63.11225346 40.51412792 -62.8125 43.875 C-62.76802734 44.58269531 -62.72355469 45.29039063 -62.67773438 46.01953125 C-62.37281861 50.0624884 -61.58749981 53.29623435 -60 57 C-52.19424805 57.02312792 -44.38850405 57.04091738 -36.58272648 57.05181217 C-32.9585404 57.05704002 -29.3343777 57.06413587 -25.71020508 57.07543945 C-22.21540025 57.08627184 -18.72061796 57.09227758 -15.22579765 57.09487724 C-13.23760611 57.09763551 -11.24942369 57.10544688 -9.26124573 57.11329651 C-7.45949135 57.11340981 -7.45949135 57.11340981 -5.62133789 57.11352539 C-4.55766495 57.115746 -3.493992 57.11796661 -2.39808655 57.12025452 C-0.04756586 57.27116763 -0.04756586 57.27116763 1 56 C1.33338596 52.54187831 1.33338596 52.54187831 1 49 C0.01 48.34 -0.98 47.68 -2 47 C-2.1875 43.875 -2.1875 43.875 -2 41 C-1.01 40.67 -0.02 40.34 1 40 C1 37.69 1 35.38 1 33 C-6.90156605 32.93051433 -14.80300463 32.87719636 -22.70480061 32.84456348 C-26.37386676 32.82890195 -30.04272401 32.80765525 -33.71166992 32.77368164 C-37.25188947 32.74110486 -40.79190799 32.72315066 -44.33226585 32.71536827 C-46.34147655 32.70712076 -48.35060628 32.68369863 -50.35969543 32.66011047 C-51.58073471 32.65988388 -52.80177399 32.65965729 -54.05981445 32.65942383 C-55.13681107 32.65276199 -56.21380768 32.64610016 -57.32344055 32.63923645 C-60.0051372 32.79348268 -60.0051372 32.79348268 -61.86222839 34.29521179 Z M-57 60 C-57 61.65 -57 63.3 -57 65 C-55.35 65 -53.7 65 -52 65 C-52 63.35 -52 61.7 -52 60 C-53.65 60 -55.3 60 -57 60 Z " fill="#F8F7F7" transform="translate(69,0)"></path><path d="M0 0 C0.99 0.33 1.98 0.66 3 1 C3.12375 2.670625 3.12375 2.670625 3.25 4.375 C3.59931526 8.00648215 3.59931526 8.00648215 5.875 9.5 C8.16786836 10.23577017 8.16786836 10.23577017 11 9 C11 6.36 11 3.72 11 1 C11.66 0.67 12.32 0.34 13 0 C17.1063895 1.89525669 19.09999099 3.91498064 21 8 C22.38338849 12.89506696 21.88430258 16.28924355 20 21 C17.5 23.9375 17.5 23.9375 15 26 C14.34 26 13.68 26 13 26 C13.01946826 30.18185942 13.07132389 34.36171585 13.15258789 38.54272461 C13.17571503 39.96350702 13.19015126 41.38445958 13.19555664 42.80541992 C13.20488661 44.85442466 13.24595166 46.9007735 13.29296875 48.94921875 C13.3086792 50.17987061 13.32438965 51.41052246 13.34057617 52.6784668 C14.17123311 56.86250517 15.83272093 58.24260058 19 61 C21.83233716 65.24850574 21.65183684 69.01034416 21 74 C19.26460898 77.23939656 17.57678866 79.42321134 15 82 C13.68 82 12.36 82 11 82 C11 79.36 11 76.72 11 74 C7.41672247 72.99782936 7.41672247 72.99782936 4 74 C3.53476937 75.89533342 3.53476937 75.89533342 3.375 78.0625 C3.25125 79.361875 3.1275 80.66125 3 82 C-0.71980755 81.78743957 -1.97426295 81.02398225 -4.75 78.4375 C-7.56594169 74.80943719 -7.7668219 71.50810984 -8 67 C-7.34 67.99 -6.68 68.98 -6 70 C-5.34 68.68 -4.68 67.36 -4 66 C-3.34 68.97 -2.68 71.94 -2 75 C-1.21625 74.21625 -0.4325 73.4325 0.375 72.625 C1.91666667 71.08333333 3.45833333 69.54166667 5 68 C8.79443488 68.29956065 11.26095217 69.3587753 14 72 C14.75 74.1875 14.75 74.1875 15 76 C17.38765606 72.62919144 17.1566828 69.80411128 16.546875 65.8984375 C15.38997463 61.8823405 12.31720872 60.21147248 9 58 C8.65779552 55.50526224 8.50809472 53.26304266 8.49609375 50.76171875 C8.48610855 50.04393753 8.47612335 49.32615631 8.46583557 48.58662415 C8.45063714 47.06602751 8.44361032 45.54533071 8.4440918 44.0246582 C8.43755076 41.70549626 8.38316349 39.39066496 8.32617188 37.07226562 C8.31736525 35.59376462 8.31141408 34.1152433 8.30859375 32.63671875 C8.2870372 31.94696457 8.26548065 31.25721039 8.24327087 30.54655457 C8.28260828 27.75986549 8.45162516 25.62327647 10.33319092 23.48471069 C11.83106494 22.24959144 13.41339677 21.11885494 15 20 C17.25001646 16.80723922 17.12673188 14.56316226 16.625 10.75 C16.51414062 9.85796875 16.40328125 8.9659375 16.2890625 8.046875 C16.19367188 7.37140625 16.09828125 6.6959375 16 6 C15.34 6 14.68 6 14 6 C14.103125 6.763125 14.20625 7.52625 14.3125 8.3125 C14 11 14 11 11.875 12.875 C8.28557142 14.27955901 6.65109346 14.21703115 3 13 C0.125 10.4375 0.125 10.4375 -2 8 C-3.19174743 10.38349487 -3.11075627 11.66923121 -2.9375 14.3125 C-2.90527344 15.07175781 -2.87304688 15.83101562 -2.83984375 16.61328125 C-2.13931997 19.33735603 -2.13931997 19.33735603 1.01586914 21.14013672 C3.8612882 23.44603758 3.97812975 23.87861617 4.68115234 27.78051758 C4.68021082 29.23553469 4.6467926 30.690787 4.5859375 32.14453125 C4.57744781 32.91431808 4.56895813 33.68410492 4.56021118 34.47721863 C4.52675703 36.9237671 4.45150592 39.36695691 4.375 41.8125 C4.34488948 43.47586368 4.31751555 45.13927929 4.29296875 46.80273438 C4.22699369 50.86977371 4.12353843 54.93431851 4 59 C3.67 59 3.34 59 3 59 C2.97494385 58.14245117 2.9498877 57.28490234 2.92407227 56.40136719 C2.82876588 53.2106563 2.72954249 50.02009781 2.62768555 46.82958984 C2.5844545 45.45040622 2.54277134 44.07117315 2.50268555 42.69189453 C2.44469597 40.70593062 2.38062277 38.72014731 2.31640625 36.734375 C2.27974854 35.54038086 2.24309082 34.34638672 2.20532227 33.11621094 C2.03707504 30.56269419 1.87060968 28.39800132 1 26 C-0.88316159 24.89163577 -0.88316159 24.89163577 -3 24 C-4.65234375 22.796875 -4.65234375 22.796875 -6 21 C-6.07421875 18.30078125 -6.07421875 18.30078125 -5.6875 15.3125 C-5.50767578 13.82169922 -5.50767578 13.82169922 -5.32421875 12.30078125 C-5.21722656 11.54152344 -5.11023437 10.78226563 -5 10 C-5.66 10 -6.32 10 -7 10 C-5.7771055 5.10842202 -4.3522544 2.65381366 0 0 Z M0 40 C0.66 40.33 1.32 40.66 2 41 C2 43 2 45 2 47 C0.68 47.33 -0.64 47.66 -2 48 C-2.6875 45.6875 -2.6875 45.6875 -3 43 C-1.5625 41.1875 -1.5625 41.1875 0 40 Z " fill="#D6D3D4" transform="translate(69,0)"></path><path d="M0 0 C0.66 1.32 1.32 2.64 2 4 C2.66 2.68 3.32 1.36 4 0 C4.99 6.6 5.98 13.2 7 20 C26.8 20 46.6 20 67 20 C67.33 17.69 67.66 15.38 68 13 C67.34 13 66.68 13 66 13 C66 12.34 66 11.68 66 11 C66.99 11 67.98 11 69 11 C69 9.68 69 8.36 69 7 C68.01 6.505 68.01 6.505 67 6 C67.99 5.34 68.98 4.68 70 4 C70.13530844 7.06398451 70.2342407 10.12197126 70.3125 13.1875 C70.35439453 14.05181641 70.39628906 14.91613281 70.43945312 15.80664062 C70.56411357 22.31391593 70.56411357 22.31391593 67.54296875 25.98828125 C66.70378906 26.65214844 65.86460938 27.31601562 65 28 C64.67 28.66 64.34 29.32 64 30 C63.34 30 62.68 30 62 30 C62 32.31 62 34.62 62 37 C59.67463937 33.51195905 59.66542102 32.09859246 60 28 C60.66 26.68 61.32 25.36 62 24 C47.81 24 33.62 24 19 24 C19 25.98 19 27.96 19 30 C17 32 17 32 14.65234375 32.23046875 C13.75644531 32.21628906 12.86054688 32.20210937 11.9375 32.1875 C11.03902344 32.18105469 10.14054688 32.17460938 9.21484375 32.16796875 C7 32 7 32 6 31 C5.87625 29.88625 5.7525 28.7725 5.625 27.625 C5.4084066 24.08315253 5.4084066 24.08315253 3.53515625 22.73046875 C1.13398697 20.0238072 1.22180115 17.22428171 0.8125 13.6875 C0.65394531 12.39199219 0.49539062 11.09648438 0.33203125 9.76171875 C0.04225511 6.47872552 -0.06635915 3.29243464 0 0 Z M10 24 C10 25.65 10 27.3 10 29 C11.65 29 13.3 29 15 29 C15 27.35 15 25.7 15 24 C13.35 24 11.7 24 10 24 Z " fill="#EFEEEE" transform="translate(2,36)"></path><path d="M0 0 C0.33 0 0.66 0 1 0 C1 10.56 1 21.12 1 32 C1.66 32 2.32 32 3 32 C3 21.77 3 11.54 3 1 C3.33 1 3.66 1 4 1 C4.00410889 1.88260498 4.00821777 2.76520996 4.01245117 3.67456055 C4.03949984 6.9647604 4.08864951 10.25311398 4.15258789 13.54272461 C4.17571503 14.96350702 4.19015126 16.38445958 4.19555664 17.80541992 C4.20488661 19.85442466 4.24595166 21.9007735 4.29296875 23.94921875 C4.3086792 25.17987061 4.32438965 26.41052246 4.34057617 27.6784668 C5.17123311 31.86250517 6.83272093 33.24260058 10 36 C12.83233716 40.24850574 12.65183684 44.01034416 12 49 C10.26460898 52.23939656 8.57678866 54.42321134 6 57 C4.68 57 3.36 57 2 57 C2 54.36 2 51.72 2 49 C-1.58327753 47.99782936 -1.58327753 47.99782936 -5 49 C-5.46523063 50.89533342 -5.46523063 50.89533342 -5.625 53.0625 C-5.74875 54.361875 -5.8725 55.66125 -6 57 C-9.71980755 56.78743957 -10.97426295 56.02398225 -13.75 53.4375 C-16.56594169 49.80943719 -16.7668219 46.50810984 -17 42 C-16.34 42.99 -15.68 43.98 -15 45 C-14.34 43.68 -13.68 42.36 -13 41 C-12.34 43.97 -11.68 46.94 -11 50 C-10.21625 49.21625 -9.4325 48.4325 -8.625 47.625 C-7.08333333 46.08333333 -5.54166667 44.54166667 -4 43 C-0.20556512 43.29956065 2.26095217 44.3587753 5 47 C5.75 49.1875 5.75 49.1875 6 51 C8.38765606 47.62919144 8.1566828 44.80411128 7.546875 40.8984375 C6.38997463 36.8823405 3.31720872 35.21147248 0 33 C-0.26711404 30.44604513 -0.34849029 28.13725626 -0.29296875 25.5859375 C-0.28872391 24.85629791 -0.28447906 24.12665833 -0.28010559 23.37490845 C-0.26329353 21.04123241 -0.22563868 18.7084156 -0.1875 16.375 C-0.17245634 14.79428329 -0.15876738 13.21355307 -0.14648438 11.6328125 C-0.11338201 7.75487656 -0.06158404 3.87758402 0 0 Z " fill="#EFEEEE" transform="translate(78,25)"></path><path d="M0 0 C1.29292969 -0.02900391 2.58585937 -0.05800781 3.91796875 -0.08789062 C5.78001953 -0.10045898 5.78001953 -0.10045898 7.6796875 -0.11328125 C8.81905762 -0.12786377 9.95842773 -0.14244629 11.13232422 -0.1574707 C14.125 0.3125 14.125 0.3125 16.46533203 1.96411133 C18.125 4.3125 18.125 4.3125 19.125 10.3125 C6.915 10.3125 -5.295 10.3125 -17.875 10.3125 C-18.205 9.6525 -18.535 8.9925 -18.875 8.3125 C-15.12880319 -1.85574849 -9.90644517 0.07363562 0 0 Z M-12.70776367 4.76831055 C-13.97550043 6.1228387 -13.97550043 6.1228387 -13.875 7.3125 C-4.635 7.3125 4.605 7.3125 14.125 7.3125 C13.465 5.9925 12.805 4.6725 12.125 3.3125 C8.35431168 3.225515 4.58388068 3.17211421 0.8125 3.125 C-0.7952832 3.08729492 -0.7952832 3.08729492 -2.43554688 3.04882812 C-3.46357422 3.03916016 -4.49160156 3.02949219 -5.55078125 3.01953125 C-6.49864502 3.0038208 -7.44650879 2.98811035 -8.4230957 2.97192383 C-10.93833166 3.10955704 -10.93833166 3.10955704 -12.70776367 4.76831055 Z " fill="#E3E0E1" transform="translate(42.875,37.6875)"></path><path d="M0 0 C0.66 0.33 1.32 0.66 2 1 C1.01 2.485 1.01 2.485 0 4 C-0.16699232 7.12521833 -0.16699232 7.12521833 0 10 C-0.66 9.34 -1.32 8.68 -2 8 C-3.19174743 10.38349487 -3.11075627 11.66923121 -2.9375 14.3125 C-2.90527344 15.07175781 -2.87304688 15.83101562 -2.83984375 16.61328125 C-2.13931997 19.33735603 -2.13931997 19.33735603 1.01586914 21.14013672 C3.8612882 23.44603758 3.97812975 23.87861617 4.68115234 27.78051758 C4.68021082 29.23553469 4.6467926 30.690787 4.5859375 32.14453125 C4.57744781 32.91431808 4.56895813 33.68410492 4.56021118 34.47721863 C4.52675703 36.9237671 4.45150592 39.36695691 4.375 41.8125 C4.34488948 43.47586368 4.31751555 45.13927929 4.29296875 46.80273438 C4.22699369 50.86977371 4.12353843 54.93431851 4 59 C3.67 59 3.34 59 3 59 C2.97494385 58.14245117 2.9498877 57.28490234 2.92407227 56.40136719 C2.82876588 53.2106563 2.72954249 50.02009781 2.62768555 46.82958984 C2.5844545 45.45040622 2.54277134 44.07117315 2.50268555 42.69189453 C2.44469597 40.70593062 2.38062277 38.72014731 2.31640625 36.734375 C2.27974854 35.54038086 2.24309082 34.34638672 2.20532227 33.11621094 C2.03707504 30.56269419 1.87060968 28.39800132 1 26 C-0.88316159 24.89163577 -0.88316159 24.89163577 -3 24 C-4.65234375 22.796875 -4.65234375 22.796875 -6 21 C-6.07421875 18.30078125 -6.07421875 18.30078125 -5.6875 15.3125 C-5.56761719 14.31863281 -5.44773438 13.32476562 -5.32421875 12.30078125 C-5.21722656 11.54152344 -5.11023437 10.78226563 -5 10 C-5.66 10 -6.32 10 -7 10 C-5.76075855 5.04303419 -4.21422242 2.88341534 0 0 Z M0 40 C0.66 40.33 1.32 40.66 2 41 C2 43 2 45 2 47 C0.68 47.33 -0.64 47.66 -2 48 C-2.6875 45.6875 -2.6875 45.6875 -3 43 C-1.5625 41.1875 -1.5625 41.1875 0 40 Z " fill="#DCD9DA" transform="translate(69,0)"></path><path d="M0 0 C14.85 0 29.7 0 45 0 C45 0.99 45 1.98 45 3 C30.15 3 15.3 3 0 3 C0 2.01 0 1.02 0 0 Z " fill="#F6F6F6" transform="translate(21,49)"></path><path d="M0 0 C0.125 3.375 0.125 3.375 0 7 C-0.66 7.66 -1.32 8.32 -2 9 C-2.495 6.525 -2.495 6.525 -3 4 C-15.87 4 -28.74 4 -42 4 C-41.34 3.01 -40.68 2.02 -40 1 C-37.12133012 0.66210735 -34.44753432 0.51091198 -31.5625 0.48828125 C-30.3086853 0.46135445 -30.3086853 0.46135445 -29.02954102 0.43388367 C-26.35307922 0.37962304 -23.67679612 0.34585198 -21 0.3125 C-19.19528734 0.27933703 -17.39059851 0.24484833 -15.5859375 0.20898438 C-4.65472183 0 -4.65472183 0 0 0 Z " fill="#F8F7F8" transform="translate(64,10)"></path><path d="M0 0 C0.33 0 0.66 0 1 0 C1 10.56 1 21.12 1 32 C1.66 32 2.32 32 3 32 C3 21.77 3 11.54 3 1 C3.33 1 3.66 1 4 1 C4.00410889 1.88260498 4.00821777 2.76520996 4.01245117 3.67456055 C4.03949984 6.9647604 4.08864951 10.25311398 4.15258789 13.54272461 C4.17571503 14.96350702 4.19015126 16.38445958 4.19555664 17.80541992 C4.20488661 19.85442466 4.24595166 21.9007735 4.29296875 23.94921875 C4.3086792 25.17987061 4.32438965 26.41052246 4.34057617 27.6784668 C5.17123311 31.86250517 6.83272093 33.24260058 10 36 C12.20914 39.31371 12.22481553 40.3446021 12.125 44.1875 C12.10695313 45.08855469 12.08890625 45.98960938 12.0703125 46.91796875 C12.04710938 47.60503906 12.02390625 48.29210937 12 49 C11.67 49 11.34 49 11 49 C11 46.03 11 43.06 11 40 C10.34 40 9.68 40 9 40 C8.67 40.66 8.34 41.32 8 42 C7.608125 41.071875 7.21625 40.14375 6.8125 39.1875 C5.31611324 35.84827365 5.31611324 35.84827365 2.41723633 34.77026367 C0 33 0 33 -0.56762695 29.63012695 C-0.56683736 28.24925863 -0.53869745 26.86822913 -0.48828125 25.48828125 C-0.47766914 24.39594429 -0.47766914 24.39594429 -0.46684265 23.28153992 C-0.43887081 20.95747763 -0.3761365 18.6358327 -0.3125 16.3125 C-0.28742031 14.73636295 -0.26460655 13.16018809 -0.24414062 11.58398438 C-0.18903626 7.72172602 -0.10275228 3.86127268 0 0 Z " fill="#B0A9AB" transform="translate(78,25)"></path><path d="M0 0 C0.66 0.33 1.32 0.66 2 1 C2 4 2 4 0.203125 5.859375 C-0.88742188 6.91898438 -0.88742188 6.91898438 -2 8 C-3.13445813 9.717299 -4.21877641 11.46879562 -5.25 13.25 C-5.77078125 14.14203125 -6.2915625 15.0340625 -6.828125 15.953125 C-7.21484375 16.62859375 -7.6015625 17.3040625 -8 18 C-8.99 17.67 -9.98 17.34 -11 17 C-14.39109824 16.85870424 -16.7630572 16.92101907 -20 18 C-20.66 18.99 -21.32 19.98 -22 21 C-21.74438677 18.6568787 -21.40729228 16.32156597 -21 14 C-18.47524538 12.73762269 -16.68799534 12.90143596 -13.875 12.9375 C-12.96492187 12.94652344 -12.05484375 12.95554687 -11.1171875 12.96484375 C-10.41851562 12.97644531 -9.71984375 12.98804688 -9 13 C-8.7525 12.29875 -8.505 11.5975 -8.25 10.875 C-6.25632458 6.28954653 -4.19011964 2.79341309 0 0 Z " fill="#E6E4E4" transform="translate(22,11)"></path><path d="M0 0 C0.66 0 1.32 0 2 0 C2.86000826 10.74054762 2.86000826 10.74054762 -0.25 14.6875 C-3 17 -3 17 -7 17 C-7 14.36 -7 11.72 -7 9 C-9.475 8.01 -9.475 8.01 -12 7 C-11.67 6.01 -11.34 5.02 -11 4 C-8.03824877 4.61277612 -6.61941217 5.25372522 -4 7 C-3.3125 9.125 -3.3125 9.125 -3 11 C-0.87953208 7.46588679 -0.46800711 4.05606165 0 0 Z " fill="#E2DFE0" transform="translate(87,65)"></path><path d="M0 0 C0.33 0.99 0.66 1.98 1 3 C-0.3125 4.5 -0.3125 4.5 -2 6 C-2.99 6 -3.98 6 -5 6 C-5 16.23 -5 26.46 -5 37 C-5.66 37 -6.32 37 -7 37 C-7 26.11 -7 15.22 -7 4 C-4.69 2.68 -2.38 1.36 0 0 Z " fill="#F8F8F8" transform="translate(86,20)"></path><path d="M0 0 C0.33 0.99 0.66 1.98 1 3 C10.9 3 20.8 3 31 3 C31 2.01 31 1.02 31 0 C31.66 0 32.32 0 33 0 C33.495 2.475 33.495 2.475 34 5 C22.45 5 10.9 5 -1 5 C-0.67 3.35 -0.34 1.7 0 0 Z " fill="#FEFEFE" transform="translate(27,43)"></path><path d="M0 0 C3 0.25 3 0.25 5 2.25 C4.625 5.875 4.625 5.875 4 9.25 C-2.41194487 10.58078101 -2.41194487 10.58078101 -5 9.125 C-6 7.25 -6 7.25 -5.8125 4.6875 C-4.61374094 1.09122283 -3.8124642 0.31770535 0 0 Z M-1 3.25 C-1.33 4.57 -1.66 5.89 -2 7.25 C-0.68 6.92 0.64 6.59 2 6.25 C1.67 5.26 1.34 4.27 1 3.25 C0.34 3.25 -0.32 3.25 -1 3.25 Z " fill="#D9D6D7" transform="translate(15,39.75)"></path><path d="M0 0 C0.66 1.32 1.32 2.64 2 4 C2.66 2.68 3.32 1.36 4 0 C4.99 6.93 5.98 13.86 7 21 C5.68 21.33 4.36 21.66 3 22 C1.03541138 20.03541138 1.2818498 16.50352994 0.9375 13.8125 C0.80118164 12.8215332 0.80118164 12.8215332 0.66210938 11.81054688 C0.14163859 7.84635959 -0.09322295 3.99615732 0 0 Z " fill="#CBC7C8" transform="translate(2,36)"></path><path d="M0 0 C0.66 0 1.32 0 2 0 C3.88178944 5.9589999 4.19671115 9.14210361 2 15 C-1.75 16.125 -1.75 16.125 -4 15 C-3.505 14.360625 -3.01 13.72125 -2.5 13.0625 C-0.70749776 9.40280793 -0.79361046 6.88864272 -0.9921875 2.890625 C-0.99605469 1.95476563 -0.99605469 1.95476563 -1 1 C-0.67 0.67 -0.34 0.34 0 0 Z " fill="#D5D2D2" transform="translate(87,6)"></path><path d="M0 0 C0.66 0 1.32 0 2 0 C2.0825 1.11375 2.165 2.2275 2.25 3.375 C2.57708873 7.03069308 2.57708873 7.03069308 4.9375 8.375 C5.618125 8.58125 6.29875 8.7875 7 9 C7.66 9.33 8.32 9.66 9 10 C8.67 10.99 8.34 11.98 8 13 C4.26512223 12.5020163 2.18762365 12.12508244 -1 10 C-1.58203125 8.125 -1.58203125 8.125 -1.8125 6 C-1.90144531 5.29875 -1.99039063 4.5975 -2.08203125 3.875 C-2 2 -2 2 0 0 Z " fill="#E3E1E1" transform="translate(70,1)"></path><path d="M0 0 C4.19327069 0.66559852 5.4399835 1.294978 7.9375 4.625 C6.9475 5.285 5.9575 5.945 4.9375 6.625 C4.2775 5.965 3.6175 5.305 2.9375 4.625 C-0.0625 4.29166667 -0.0625 4.29166667 -3.0625 4.625 C-3.7225 5.285 -4.3825 5.945 -5.0625 6.625 C-5.3925 6.295 -5.7225 5.965 -6.0625 5.625 C-6.3925 6.285 -6.7225 6.945 -7.0625 7.625 C-7.7225 7.295 -8.3825 6.965 -9.0625 6.625 C-4.77678571 0.19642857 -4.77678571 0.19642857 0 0 Z " fill="#D6D2D3" transform="translate(59.0625,22.375)"></path><path d="M0 0 C0.66 0.33 1.32 0.66 2 1 C2 4 2 4 0.25 5.875 C-0.4925 6.57625 -1.235 7.2775 -2 8 C-3.35156675 9.65191491 -4.68962066 11.31522656 -6 13 C-6 12.34 -6 11.68 -6 11 C-6.66 11 -7.32 11 -8 11 C-6.46457536 6.52167812 -4.39145948 2.19572974 0 0 Z " fill="#D4D1D1" transform="translate(22,11)"></path><path d="M0 0 C0.99 0.33 1.98 0.66 3 1 C1.25 4.875 1.25 4.875 -1 6 C-1.46523063 7.89533342 -1.46523063 7.89533342 -1.625 10.0625 C-1.810625 12.0115625 -1.810625 12.0115625 -2 14 C-2.33 14 -2.66 14 -3 14 C-3 11.36 -3 8.72 -3 6 C-3.66 6 -4.32 6 -5 6 C-5.33 7.32 -5.66 8.64 -6 10 C-6.33 9.34 -6.66 8.68 -7 8 C-5.27075063 4.45048814 -3.47053526 1.95217609 0 0 Z " fill="#C5C0C1" transform="translate(74,68)"></path><path d="M0 0 C0.66 0.33 1.32 0.66 2 1 C1.01 2.485 1.01 2.485 0 4 C-0.16699232 7.12521833 -0.16699232 7.12521833 0 10 C-0.66 9.34 -1.32 8.68 -2 8 C-2.66 8.66 -3.32 9.32 -4 10 C-4.66 8.68 -5.32 7.36 -6 6 C-4 4 -2 2 0 0 Z " fill="#C4BFC0" transform="translate(69,0)"></path><path d="M0 0 C2.4375 0.8125 2.4375 0.8125 5 2 C5.33 2.99 5.66 3.98 6 5 C5.01 5.66 4.02 6.32 3 7 C3 6.01 3 5.02 3 4 C2.01 4 1.02 4 0 4 C-0.33 4.99 -0.66 5.98 -1 7 C-1.04254356 5.00045254 -1.04080783 2.99958364 -1 1 C-0.67 0.67 -0.34 0.34 0 0 Z " fill="#E6E4E4" transform="translate(82,1)"></path><path d="M0 0 C0.33 0 0.66 0 1 0 C1.33 2.97 1.66 5.94 2 9 C1.34 9 0.68 9 0 9 C-0.33 9.66 -0.66 10.32 -1 11 C-2.60355101 7.49223216 -3.22036864 4.85645121 -3 1 C-2.01 2.485 -2.01 2.485 -1 4 C-0.67 2.68 -0.34 1.36 0 0 Z " fill="#C1BBBC" transform="translate(64,66)"></path><path d="M0 0 C0.33 0 0.66 0 1 0 C1.66 4.29 2.32 8.58 3 13 C1.68 13.33 0.36 13.66 -1 14 C-1.33 12.68 -1.66 11.36 -2 10 C-1.67 10 -1.34 10 -1 10 C-0.67 6.7 -0.34 3.4 0 0 Z " fill="#BAB4B6" transform="translate(6,44)"></path><path d="M0 0 C0.33 0.99 0.66 1.98 1 3 C-0.25 4.5 -0.25 4.5 -2 6 C-3.32 6 -4.64 6 -6 6 C-6 5.01 -6 4.02 -6 3 C-4.02 2.01 -2.04 1.02 0 0 Z " fill="#E4E2E2" transform="translate(86,20)"></path><path d="M0 0 C1.65 1.32 3.3 2.64 5 4 C5.66 3.67 6.32 3.34 7 3 C6.67 3.99 6.34 4.98 6 6 C3.625 6.125 3.625 6.125 1 6 C0.34 5.34 -0.32 4.68 -1 4 C-0.625 1.875 -0.625 1.875 0 0 Z " fill="#EFEDED" transform="translate(11,44)"></path></svg>