<svg xmlns="http://www.w3.org/2000/svg" width="91" height="83"><path d="M0 0 C3.64486415 2.7277693 6.94729442 5.33506547 9.359375 9.25 C9.359375 10.57 9.359375 11.89 9.359375 13.25 C8.369375 13.25 7.379375 13.25 6.359375 13.25 C4.88671875 11.7109375 4.88671875 11.7109375 3.296875 9.625 C-2.09471675 3.22319422 -9.04170521 -1.17279356 -17.37109375 -2.55859375 C-27.6634181 -3.4266211 -36.0241536 0.15104804 -44.30078125 6.19140625 C-50.75762741 11.87213734 -53.68580049 19.03630754 -55.640625 27.25 C-53.990625 27.58 -52.340625 27.91 -50.640625 28.25 C-49.980625 26.93 -49.320625 25.61 -48.640625 24.25 C-46.330625 24.25 -44.020625 24.25 -41.640625 24.25 C-41.3725 23.486875 -41.104375 22.72375 -40.828125 21.9375 C-39.61830449 19.19948516 -39.01694543 18.00784763 -36.640625 16.25 C-32.40370044 15.6376186 -28.14710888 15.69259021 -23.87158203 15.6940918 C-21.77840127 15.68753999 -19.68999486 15.63310123 -17.59765625 15.57617188 C-7.89602271 15.45443858 -7.89602271 15.45443858 -4.58105469 17.55517578 C-2.76129966 19.66283426 -1.640625 21.41568161 -1.640625 24.25 C-0.526875 24.20875 0.586875 24.1675 1.734375 24.125 C5.359375 24.25 5.359375 24.25 7.359375 26.25 C7.359375 27.57 7.359375 28.89 7.359375 30.25 C6.699375 30.25 6.039375 30.25 5.359375 30.25 C5.41158203 31.35794922 5.41158203 31.35794922 5.46484375 32.48828125 C5.66167722 39.86484974 4.88012867 46.28854038 2.359375 53.25 C1.359375 54.25 1.359375 54.25 -0.48828125 54.34765625 C-2.5390625 54.31510417 -4.58984375 54.28255208 -6.640625 54.25 C-6.970625 52.6 -7.300625 50.95 -7.640625 49.25 C-16.880625 49.25 -26.120625 49.25 -35.640625 49.25 C-35.970625 50.9 -36.300625 52.55 -36.640625 54.25 C-39.280625 54.25 -41.920625 54.25 -44.640625 54.25 C-47.8584804 47.35031935 -49.70720245 40.91972276 -49.640625 33.25 C-49.310625 32.59 -48.980625 31.93 -48.640625 31.25 C-52.31096427 34.52708863 -54.33343689 37.96522208 -56.640625 42.25 C-57.960625 42.25 -59.280625 42.25 -60.640625 42.25 C-62.59765625 39.6953125 -62.59765625 39.6953125 -64.453125 36.375 C-65.39091797 34.73917969 -65.39091797 34.73917969 -66.34765625 33.0703125 C-66.77433594 32.13960937 -67.20101562 31.20890625 -67.640625 30.25 C-67.310625 29.59 -66.980625 28.93 -66.640625 28.25 C-63.578125 27.625 -63.578125 27.625 -60.640625 27.25 C-60.49367188 26.64414062 -60.34671875 26.03828125 -60.1953125 25.4140625 C-57.25334265 14.42394523 -51.72376941 4.36399452 -41.66796875 -1.4765625 C-27.39545729 -8.79490981 -13.74062995 -9.1062163 0 0 Z M-37.92578125 22.66796875 C-39.7845595 25.88876389 -39.7845595 25.88876389 -39.640625 28.25 C-32.380625 28.25 -25.120625 28.25 -17.640625 28.25 C-17.310625 27.26 -16.980625 26.27 -16.640625 25.25 C-8.44806482 24.7773523 -8.44806482 24.7773523 -5.078125 26.75 C-4.60375 27.245 -4.129375 27.74 -3.640625 28.25 C-4.95971692 24.29272425 -6.40484181 21.90433443 -9.640625 19.25 C-13.74462404 18.3811607 -17.89213153 18.55537693 -22.078125 18.5625 C-23.21056641 18.52189453 -24.34300781 18.48128906 -25.50976562 18.43945312 C-32.70503015 18.28553263 -32.70503015 18.28553263 -37.92578125 22.66796875 Z M-11.640625 26.25 C-12.300625 26.91 -12.960625 27.57 -13.640625 28.25 C-11.990625 28.25 -10.340625 28.25 -8.640625 28.25 C-9.630625 27.59 -10.620625 26.93 -11.640625 26.25 Z M-61.640625 31.25 C-60.980625 32.9 -60.320625 34.55 -59.640625 36.25 C-58.980625 36.25 -58.320625 36.25 -57.640625 36.25 C-56.980625 34.6 -56.320625 32.95 -55.640625 31.25 C-57.620625 31.25 -59.600625 31.25 -61.640625 31.25 Z M-45.640625 33.25 C-45.3221073 35.35820797 -45.3221073 35.35820797 -44.640625 37.25 C-41.175625 36.755 -41.175625 36.755 -37.640625 36.25 C-37.310625 37.57 -36.980625 38.89 -36.640625 40.25 C-38.99501233 41.67944945 -40.12094933 42.33661261 -42.890625 41.875 C-43.468125 41.66875 -44.045625 41.4625 -44.640625 41.25 C-44.310625 42.9 -43.980625 44.55 -43.640625 46.25 C-39.020625 46.25 -34.400625 46.25 -29.640625 46.25 C-29.970625 44.93 -30.300625 43.61 -30.640625 42.25 C-25.030625 42.58 -19.420625 42.91 -13.640625 43.25 C-13.640625 44.24 -13.640625 45.23 -13.640625 46.25 C-9.020625 46.25 -4.400625 46.25 0.359375 46.25 C0.689375 44.27 1.019375 42.29 1.359375 40.25 C-0.950625 40.58 -3.260625 40.91 -5.640625 41.25 C-6.02281267 39.59385343 -6.35457602 37.92542976 -6.640625 36.25 C-5.640625 35.25 -5.640625 35.25 -3.203125 35.125 C-0.640625 35.25 -0.640625 35.25 1.359375 36.25 C0.864375 33.775 0.864375 33.775 0.359375 31.25 C-5.87024477 31.19940119 -12.0998118 31.16430938 -18.32958984 31.14013672 C-20.4500527 31.13006249 -22.57050161 31.11640267 -24.69091797 31.09912109 C-27.73408443 31.07493511 -30.77706766 31.06353131 -33.8203125 31.0546875 C-34.77243622 31.04436493 -35.72455994 31.03404236 -36.70553589 31.02340698 C-37.58629791 31.02325592 -38.46705994 31.02310486 -39.37451172 31.02294922 C-40.54033279 31.01628738 -40.54033279 31.01628738 -41.72970581 31.00949097 C-43.88135889 31.08188605 -43.88135889 31.08188605 -45.640625 33.25 Z M-3.640625 37.25 C-2.640625 39.25 -2.640625 39.25 -2.640625 39.25 Z M-40.640625 38.25 C-39.640625 40.25 -39.640625 40.25 -39.640625 40.25 Z M-41.640625 49.25 C-41.640625 49.91 -41.640625 50.57 -41.640625 51.25 C-40.980625 51.25 -40.320625 51.25 -39.640625 51.25 C-39.640625 50.59 -39.640625 49.93 -39.640625 49.25 C-40.300625 49.25 -40.960625 49.25 -41.640625 49.25 Z M-3.640625 49.25 C-3.640625 49.91 -3.640625 50.57 -3.640625 51.25 C-2.980625 51.25 -2.320625 51.25 -1.640625 51.25 C-1.640625 50.59 -1.640625 49.93 -1.640625 49.25 C-2.300625 49.25 -2.960625 49.25 -3.640625 49.25 Z " fill="#D0CCCC" transform="translate(67.640625,6.75)"></path><path d="M0 0 C2.09318076 -0.00655181 4.18158718 -0.06099057 6.27392578 -0.11791992 C15.97555932 -0.23965322 15.97555932 -0.23965322 19.29052734 1.86108398 C21.11028237 3.96874246 22.23095703 5.72158982 22.23095703 8.5559082 C23.34470703 8.5146582 24.45845703 8.4734082 25.60595703 8.4309082 C29.23095703 8.5559082 29.23095703 8.5559082 31.23095703 10.5559082 C31.23095703 11.8759082 31.23095703 13.1959082 31.23095703 14.5559082 C30.57095703 14.5559082 29.91095703 14.5559082 29.23095703 14.5559082 C29.23095703 18.5159082 29.23095703 22.4759082 29.23095703 26.5559082 C28.57095703 26.5559082 27.91095703 26.5559082 27.23095703 26.5559082 C26.90095703 27.2159082 26.57095703 27.8759082 26.23095703 28.5559082 C26.23095703 24.5959082 26.23095703 20.6359082 26.23095703 16.5559082 C19.69816364 16.53126474 13.16539705 16.51307529 6.63256836 16.50097656 C4.40827971 16.49593504 2.1839944 16.48910198 -0.0402832 16.48046875 C-3.22982606 16.46839522 -6.41932526 16.46267825 -9.60888672 16.45825195 C-10.60991928 16.45309067 -11.61095184 16.44792938 -12.64231873 16.44261169 C-14.02363731 16.4424984 -14.02363731 16.4424984 -15.43286133 16.44238281 C-16.24782578 16.4401622 -17.06279022 16.43794159 -17.90245056 16.43565369 C-19.78382153 16.35062575 -19.78382153 16.35062575 -20.76904297 17.5559082 C-21.00097161 19.07060269 -21.18119535 20.59345382 -21.33154297 22.1184082 C-21.45722656 23.3578418 -21.45722656 23.3578418 -21.58544922 24.62231445 C-21.64603516 25.26040039 -21.70662109 25.89848633 -21.76904297 26.5559082 C-22.42904297 26.5559082 -23.08904297 26.5559082 -23.76904297 26.5559082 C-23.76904297 22.5959082 -23.76904297 18.6359082 -23.76904297 14.5559082 C-24.42904297 14.5559082 -25.08904297 14.5559082 -25.76904297 14.5559082 C-25.81176397 12.88978915 -25.80968129 11.22207935 -25.76904297 9.5559082 C-24.76904297 8.5559082 -24.76904297 8.5559082 -21.20654297 8.4934082 C-20.07216797 8.5140332 -18.93779297 8.5346582 -17.76904297 8.5559082 C-17.50091797 7.7927832 -17.23279297 7.0296582 -16.95654297 6.2434082 C-13.60153497 -1.34950463 -7.32307386 -0.00257191 0 0 Z M-14.05419922 6.97387695 C-15.91297747 10.1946721 -15.91297747 10.1946721 -15.76904297 12.5559082 C-8.50904297 12.5559082 -1.24904297 12.5559082 6.23095703 12.5559082 C6.56095703 11.5659082 6.89095703 10.5759082 7.23095703 9.5559082 C15.42351721 9.0832605 15.42351721 9.0832605 18.79345703 11.0559082 C19.26783203 11.5509082 19.74220703 12.0459082 20.23095703 12.5559082 C18.91186511 8.59863245 17.46674023 6.21024263 14.23095703 3.5559082 C10.12695799 2.6870689 5.9794505 2.86128513 1.79345703 2.8684082 C0.66101563 2.82780273 -0.47142578 2.78719727 -1.63818359 2.74536133 C-8.83344812 2.59144084 -8.83344812 2.59144084 -14.05419922 6.97387695 Z M12.23095703 10.5559082 C11.57095703 11.2159082 10.91095703 11.8759082 10.23095703 12.5559082 C11.88095703 12.5559082 13.53095703 12.5559082 15.23095703 12.5559082 C14.24095703 11.8959082 13.25095703 11.2359082 12.23095703 10.5559082 Z " fill="#EEECEC" transform="translate(43.76904296875,22.444091796875)"></path><path d="M0 0 C2.78373578 0.35704437 3.8127964 0.78832254 5.703125 2.92578125 C6.21359375 3.71339844 6.7240625 4.50101563 7.25 5.3125 C8.03117187 6.48232422 8.03117187 6.48232422 8.828125 7.67578125 C10 10 10 10 10 14 C7.69 14 5.38 14 3 14 C2.95875 15.093125 2.9175 16.18625 2.875 17.3125 C1.77026093 25.8628777 -3.47322759 33.40967333 -9.64453125 39.2109375 C-19.86275821 46.97204521 -30.49871792 49.19340283 -43 48 C-53.05983235 45.5266909 -60.00535469 39.31419764 -67 32 C-66.505 30.515 -66.505 30.515 -66 29 C-62.65181599 30.45965775 -60.4301257 32.34796608 -57.8125 34.875 C-50.81141907 41.23018219 -42.89205455 44.4669258 -33.36328125 44.26953125 C-22.87435157 43.07327315 -14.11690296 38.12552326 -7.375 30.0546875 C-4.02918937 25.13554925 -2.44343058 19.72678147 -1 14 C-2.98 14 -4.96 14 -7 14 C-6.34097701 10.42959697 -4.83770842 7.82267745 -2.9375 4.75 C-2.38964844 3.85796875 -1.84179688 2.9659375 -1.27734375 2.046875 C-0.85582031 1.37140625 -0.43429688 0.6959375 0 0 Z M1 6 C-0.6446674 8.46326712 -0.6446674 8.46326712 -2 11 C0.31 11 2.62 11 5 11 C4.34 9.35 3.68 7.7 3 6 C2.34 6 1.68 6 1 6 Z " fill="#DAD7D8" transform="translate(81,35)"></path><path d="M0 0 C0.33 0 0.66 0 1 0 C1.495 4.95 1.495 4.95 2 10 C2.33 10 2.66 10 3 10 C3.43200679 14.75207471 1.98489083 17.78210698 0 22 C-2.64 22 -5.28 22 -8 22 C-8.33 20.35 -8.66 18.7 -9 17 C-18.24 17 -27.48 17 -37 17 C-37.33 18.65 -37.66 20.3 -38 22 C-40.64 22 -43.28 22 -46 22 C-48.06440531 17.8160335 -48.0902668 14.79364129 -47.625 10.1875 C-47.51414062 9.02605469 -47.40328125 7.86460938 -47.2890625 6.66796875 C-47.19367187 5.78753906 -47.09828125 4.90710937 -47 4 C-40.9453125 3.0234375 -40.9453125 3.0234375 -39 3 C-38.34 3.66 -37.68 4.32 -37 5 C-37.125 7 -37.125 7 -38 9 C-39.875 10.3125 -39.875 10.3125 -42 11 C-42.99 10.67 -43.98 10.34 -45 10 C-45 11.32 -45 12.64 -45 14 C-38.565 13.505 -38.565 13.505 -32 13 C-32 12.01 -32 11.02 -32 10 C-26.39 10 -20.78 10 -15 10 C-14.505 11.485 -14.505 11.485 -14 13 C-9.71 13.33 -5.42 13.66 -1 14 C-1 12.35 -1 10.7 -1 9 C-1.33 9.33 -1.66 9.66 -2 10 C-4.4375 10.1875 -4.4375 10.1875 -7 10 C-7.66 9.34 -8.32 8.68 -9 8 C-8.44444444 3.44444444 -8.44444444 3.44444444 -7 2 C-4.5 1.875 -4.5 1.875 -2 2 C-1.505 2.495 -1.505 2.495 -1 3 C-0.67 2.01 -0.34 1.02 0 0 Z M-5 5 C-4 7 -4 7 -4 7 Z M-42 6 C-41 8 -41 8 -41 8 Z M-43 17 C-43 17.66 -43 18.32 -43 19 C-42.34 19 -41.68 19 -41 19 C-41 18.34 -41 17.68 -41 17 C-41.66 17 -42.32 17 -43 17 Z M-5 17 C-5 17.66 -5 18.32 -5 19 C-4.34 19 -3.68 19 -3 19 C-3 18.34 -3 17.68 -3 17 C-3.66 17 -4.32 17 -5 17 Z " fill="#EAE8E9" transform="translate(69,39)"></path><path d="M0 0 C3.34818401 1.45965775 5.5698743 3.34796608 8.1875 5.875 C15.33421137 12.3623772 23.0801834 15.29338774 32.7421875 15.23828125 C36.26004953 14.86701899 39.47670721 13.73271723 42.80078125 12.55859375 C45 12 45 12 48 13 C47 16 47 16 43.9375 17.6875 C34.87263416 20.75812122 23.61246874 20.243985 15.03125 16.125 C8.67212557 12.60302339 3.99571356 8.22394413 -1 3 C-0.67 2.01 -0.34 1.02 0 0 Z " fill="#DAD7D8" transform="translate(15,64)"></path><path d="M0 0 C7.89281746 3.0982102 16.15674214 7.71818584 20.72265625 15.12890625 C20.72265625 16.44890625 20.72265625 17.76890625 20.72265625 19.12890625 C19.73265625 19.12890625 18.74265625 19.12890625 17.72265625 19.12890625 C16.25 17.58984375 16.25 17.58984375 14.66015625 15.50390625 C9.33258249 9.17811341 2.44378475 4.78744308 -5.76171875 3.296875 C-10.95706711 2.94998062 -16.11699831 3.53869673 -21.27734375 4.12890625 C-17.70999946 -3.77021326 -7.35068048 -1.95375655 0 0 Z " fill="#D9D6D6" transform="translate(56.27734375,0.87109375)"></path><path d="M0 0 C2.8842454 0.34485543 3.8207818 0.78255407 5.703125 3.06640625 C6.21359375 3.89011719 6.7240625 4.71382812 7.25 5.5625 C7.77078125 6.38878906 8.2915625 7.21507812 8.828125 8.06640625 C9.21484375 8.70449219 9.6015625 9.34257813 10 10 C9.67 10.66 9.34 11.32 9 12 C6.5625 11.25 6.5625 11.25 4 10 C3.1875 7.875 3.1875 7.875 3 6 C2.0925 6.763125 1.185 7.52625 0.25 8.3125 C-2.114556 10.28483107 -4.51305942 12.18262034 -7 14 C-6.34097701 10.42959697 -4.83770842 7.82267745 -2.9375 4.75 C-2.38964844 3.85796875 -1.84179688 2.9659375 -1.27734375 2.046875 C-0.64505859 1.03367188 -0.64505859 1.03367188 0 0 Z " fill="#CFCACB" transform="translate(81,35)"></path><path d="M0 0 C5.61 0 11.22 0 17 0 C17 1.32 17 2.64 17 4 C11.72 4 6.44 4 1 4 C0.67 2.68 0.34 1.36 0 0 Z " fill="#B8B2B3" transform="translate(37,49)"></path><path d="M0 0 C0.33 0 0.66 0 1 0 C1.36272727 6.40818182 1.36272727 6.40818182 -0.1875 8.9375 C-2.62103204 10.36405327 -4.22542896 10.35571424 -7 10 C-7.66 9.34 -8.32 8.68 -9 8 C-8.44444444 3.44444444 -8.44444444 3.44444444 -7 2 C-4.5 1.875 -4.5 1.875 -2 2 C-1.67 2.33 -1.34 2.66 -1 3 C-0.67 2.01 -0.34 1.02 0 0 Z M-5 5 C-4 7 -4 7 -4 7 Z " fill="#BAB4B5" transform="translate(69,39)"></path><path d="M0 0 C0.66 0.66 1.32 1.32 2 2 C1.875 4 1.875 4 1 6 C-0.875 7.3125 -0.875 7.3125 -3 8 C-3.99 7.67 -4.98 7.34 -6 7 C-6.33 8.32 -6.66 9.64 -7 11 C-8 10 -8 10 -8.09765625 7.93359375 C-8.08605469 7.10988281 -8.07445313 6.28617188 -8.0625 5.4375 C-8.05347656 4.61121094 -8.04445313 3.78492188 -8.03515625 2.93359375 C-8.02355469 2.29550781 -8.01195313 1.65742187 -8 1 C-5.03104944 0.01034981 -3.0913386 -0.23779528 0 0 Z M-3 3 C-2 5 -2 5 -2 5 Z " fill="#CEC9CA" transform="translate(30,42)"></path><path d="M0 0 C3.96 0 7.92 0 12 0 C12.66 1.32 13.32 2.64 14 4 C12.72125 4.144375 11.4425 4.28875 10.125 4.4375 C7.74307106 4.70642746 6.15547309 4.92226346 4 6 C4 5.34 4 4.68 4 4 C2.02 4 0.04 4 -2 4 C-1.34 2.68 -0.68 1.36 0 0 Z " fill="#F8F7F8" transform="translate(77,45)"></path><path d="M0 0 C-1 3 -1 3 -3 4.1875 C-7.03804554 5.28113733 -10.84315708 5.16301345 -15 5 C-12.70731454 1.56097181 -11.88956548 1.35147553 -8.0625 0.25 C-7.18722656 -0.01296875 -6.31195313 -0.2759375 -5.41015625 -0.546875 C-3 -1 -3 -1 0 0 Z " fill="#E1DFDF" transform="translate(63,77)"></path><path d="M0 0 C1.98 0 3.96 0 6 0 C6 2.31 6 4.62 6 7 C4.02 7 2.04 7 0 7 C0 4.69 0 2.38 0 0 Z " fill="#BDB7B9" transform="translate(47,41)"></path><path d="M0 0 C1.33333333 0 2.66666667 0 4 0 C3.25 7.75 3.25 7.75 1 10 C0.67 9.34 0.34 8.68 0 8 C-0.99 8.495 -0.99 8.495 -2 9 C-1.34 6.03 -0.68 3.06 0 0 Z " fill="#BFB9BA" transform="translate(80,49)"></path><path d="M0 0 C1.125 3.75 1.125 3.75 0 6 C-1.32 6 -2.64 6 -4 6 C-4.33 4.35 -4.66 2.7 -5 1 C-3.35 0.67 -1.7 0.34 0 0 Z " fill="#DEDCDC" transform="translate(11,43)"></path><path d="M0 0 C1.65 0.33 3.3 0.66 5 1 C5 1.99 5 2.98 5 4 C4 5 4 5 0.4375 5.0625 C-0.696875 5.041875 -1.83125 5.02125 -3 5 C-2.67 4.34 -2.34 3.68 -2 3 C-1.67 3 -1.34 3 -1 3 C-0.67 2.01 -0.34 1.02 0 0 Z " fill="#DEDCDC" transform="translate(56,31)"></path><path d="M0 0 C0.6875 1.8125 0.6875 1.8125 1 4 C-0.4375 5.75 -0.4375 5.75 -2 7 C-3.32 6.34 -4.64 5.68 -6 5 C-5.34 5 -4.68 5 -4 5 C-3.896875 4.360625 -3.79375 3.72125 -3.6875 3.0625 C-3.460625 2.381875 -3.23375 1.70125 -3 1 C-2.01 0.67 -1.02 0.34 0 0 Z " fill="#D3CFD0" transform="translate(14,38)"></path><path d="M0 0 C0.66 0.33 1.32 0.66 2 1 C1.505 1.61875 1.01 2.2375 0.5 2.875 C-1.19222773 4.83880904 -1.19222773 4.83880904 -1 7 C-2.32 7.33 -3.64 7.66 -5 8 C-4.64950425 4.75791433 -4.43778819 3.38472296 -1.9375 1.1875 C-1.298125 0.795625 -0.65875 0.40375 0 0 Z " fill="#C7C3C3" transform="translate(67,71)"></path><path d="M0 0 C0.33 0.66 0.66 1.32 1 2 C2.32 1.67 3.64 1.34 5 1 C5 2.32 5 3.64 5 5 C3.35 5 1.7 5 0 5 C-0.5625 3.0625 -0.5625 3.0625 -1 1 C-0.67 0.67 -0.34 0.34 0 0 Z " fill="#ECEBEB" transform="translate(62,44)"></path><path d="M0 0 C0.66 0.33 1.32 0.66 2 1 C1.34 1.66 0.68 2.32 0 3 C0.33 3.66 0.66 4.32 1 5 C0.01 5.99 -0.98 6.98 -2 8 C-2 7.34 -2 6.68 -2 6 C-2.66 6 -3.32 6 -4 6 C-2.84826645 3.53199953 -1.95216435 1.95216435 0 0 Z " fill="#CAC6C7" transform="translate(31,23)"></path><path d="M0 0 C1.32 1.32 2.64 2.64 4 4 C3.67 4.66 3.34 5.32 3 6 C0.5625 5.1875 0.5625 5.1875 -2 4 C-2.33 3.01 -2.66 2.02 -3 1 C-2.01 0.67 -1.02 0.34 0 0 Z " fill="#B8B2B3" transform="translate(87,41)"></path><path d="M0 0 C0.99 0.33 1.98 0.66 3 1 C3 2.65 3 4.3 3 6 C2.01 6.33 1.02 6.66 0 7 C0 4.69 0 2.38 0 0 Z " fill="#BFB9BA" transform="translate(55,41)"></path><path d="M0 0 C0.66 0 1.32 0 2 0 C2 2.31 2 4.62 2 7 C1.34 7 0.68 7 0 7 C0 4.69 0 2.38 0 0 Z " fill="#B6AFB1" transform="translate(39,41)"></path><path d="M0 0 C0.99 0.495 0.99 0.495 2 1 C2 2.65 2 4.3 2 6 C1.01 6.495 1.01 6.495 0 7 C0 4.69 0 2.38 0 0 Z " fill="#D2CECF" transform="translate(43,41)"></path><path d="M0 0 C0.66 0 1.32 0 2 0 C2 1.65 2 3.3 2 5 C1.34 5 0.68 5 0 5 C0 3.35 0 1.7 0 0 Z " fill="#F6F5F5" transform="translate(35,42)"></path></svg>